<svg xmlns="http://www.w3.org/2000/svg" viewBox="0 0 448.8781 245.3083"><path d="M195.2116,167.5655a9.207,9.207,0,0,1-4.6122,1.24c-.0213,0-.0423-.0039-.0638-.0041s-.0428.0041-.0641.0041a9.2388,9.2388,0,0,1-8.0134-4.6227l-30.48-52.7925L69.8517,158.8014a9.2426,9.2426,0,0,1-9.2424-16.0088L150.7405,90.76a9.2407,9.2407,0,0,1,12.6257,3.3832l30.5113,52.8474,75.8119-43.77L241.4982,75.03,207.9736,94.3851,190.216,63.6277,172.8426,33.5333l-.0012.0007,0-.0007L154.166,44.3152,0,133.3154l47.7489,82.7128,90.1334-52.0337,35.1017,60.7978.0959-.0553.0319.0553,94.5805-54.6061,9.1174-49.7313Z" style="fill:#00a99d"/><path d="M432.5922,42.36,284.2876,68.0251l16.7345,36.1862,91.084-15.7627a9.2426,9.2426,0,0,1,3.1519,18.2146l-93.4986,16.18-25.7149,43.5324,172.8336-29.91Z" style="fill:#00a99d"/><path d="M242.5354,60.6071a3.4913,3.4913,0,0,1-2.6176-1.1748L217.4666,34.1735a3.5,3.5,0,0,1,5.2324-4.65L245.15,54.7819a3.5,3.5,0,0,1-2.6148,5.8252Z" style="fill:#a8e1de"/><path d="M260.5594,51.1706a3.5013,3.5013,0,0,1-3.4532-2.9571L250.1536,4.0446a3.5,3.5,0,0,1,6.915-1.0879l6.9527,44.1689a3.5083,3.5083,0,0,1-3.4619,4.045Z" style="fill:#a8e1de"/><path d="M279.8611,52.4381a3.5019,3.5019,0,0,1-3.2749-4.7343l11.08-29.4121a3.5,3.5,0,1,1,6.5508,2.4668l-11.08,29.4121A3.5007,3.5007,0,0,1,279.8611,52.4381Z" style="fill:#a8e1de"/><path d="M325.636,213.9176a3.4881,3.4881,0,0,1-2.3833-.9375l-24.7383-23.0234a3.5,3.5,0,0,1,4.7686-5.125l24.7383,23.0234a3.5,3.5,0,0,1-2.3853,6.0625Z" style="fill:#a8e1de"/><path d="M294.9363,245.3083a3.5012,3.5012,0,0,1-3.3882-2.6329L280.451,199.361a3.5,3.5,0,1,1,6.7812-1.7363l11.0972,43.3144a3.5033,3.5033,0,0,1-3.3931,4.3692Z" style="fill:#a8e1de"/><path d="M256.2625,232.8854a3.5046,3.5046,0,0,1-3.3794-4.42l8.25-30.3291a3.5,3.5,0,0,1,6.7549,1.8379l-8.25,30.3291A3.5021,3.5021,0,0,1,256.2625,232.8854Z" style="fill:#a8e1de"/></svg>