<?xml version="1.0" encoding="UTF-8"?><svg id="Layer_1" xmlns="http://www.w3.org/2000/svg" viewBox="0 0 448.88 245.31"><defs><style>.cls-1{fill:#99cdfd;}.cls-2{fill:#0083fa;}</style></defs><path class="cls-2" d="M195.21,167.57c-1.45.84-3.04,1.24-4.61,1.24-.02,0-.04,0-.06,0-.02,0-.04,0-.06,0-3.2,0-6.3-1.66-8.01-4.62l-30.48-52.79-82.13,47.41c-1.46.84-3.04,1.24-4.61,1.24-3.19,0-6.3-1.66-8.01-4.62-2.55-4.42-1.04-10.07,3.38-12.63l90.13-52.03c4.42-2.55,10.07-1.04,12.63,3.38l30.51,52.85,75.81-43.77-28.19-28.19-33.52,19.36-17.76-30.76-17.37-30.09h0s0,0,0,0l-18.68,10.78L0,133.32l47.75,82.71,90.13-52.03,35.1,60.8.1-.06.03.06,94.58-54.61,9.12-49.73-81.6,47.11Z"/><path class="cls-2" d="M432.59,42.36l-148.3,25.67,16.73,36.19,91.08-15.76c5.03-.87,9.81,2.5,10.68,7.53.87,5.03-2.5,9.81-7.53,10.68l-93.5,16.18-25.71,43.53,172.83-29.91-16.29-94.11Z"/><path class="cls-1" d="M242.54,60.61c-.97,0-1.93-.4-2.62-1.17l-22.45-25.26c-1.28-1.44-1.15-3.66.29-4.94,1.44-1.29,3.66-1.15,4.94.29l22.45,25.26c1.28,1.44,1.15,3.66-.29,4.94-.67.59-1.5.88-2.32.88Z"/><path class="cls-1" d="M260.56,51.17c-1.69,0-3.18-1.23-3.45-2.96l-6.95-44.17c-.3-1.91,1-3.7,2.91-4,1.91-.3,3.7,1,4,2.91l6.95,44.17c.3,1.91-1,3.7-2.91,4-.18.03-.37.04-.55.04Z"/><path class="cls-1" d="M279.86,52.44c-.41,0-.83-.07-1.23-.23-1.81-.68-2.72-2.7-2.04-4.51l11.08-29.41c.68-1.81,2.7-2.73,4.51-2.04,1.81.68,2.72,2.7,2.04,4.51l-11.08,29.41c-.53,1.4-1.86,2.27-3.28,2.27Z"/><path class="cls-1" d="M325.64,213.92c-.85,0-1.71-.31-2.38-.94l-24.74-23.02c-1.42-1.32-1.49-3.53-.18-4.95,1.32-1.41,3.53-1.49,4.95-.18l24.74,23.02c1.42,1.32,1.49,3.53.18,4.95-.69.74-1.62,1.12-2.56,1.12Z"/><path class="cls-1" d="M294.94,245.31c-1.56,0-2.98-1.05-3.39-2.63l-11.1-43.31c-.48-1.87.65-3.78,2.52-4.26,1.87-.48,3.78.65,4.26,2.52l11.1,43.31c.48,1.87-.65,3.78-2.52,4.26-.29.07-.58.11-.87.11Z"/><path class="cls-1" d="M256.26,232.89c-.3,0-.61-.04-.92-.12-1.87-.51-2.97-2.43-2.46-4.3l8.25-30.33c.51-1.87,2.43-2.97,4.3-2.46,1.87.51,2.97,2.43,2.46,4.3l-8.25,30.33c-.42,1.56-1.84,2.58-3.38,2.58Z"/></svg>