<?xml version="1.0" encoding="UTF-8"?><svg id="Layer_1" xmlns="http://www.w3.org/2000/svg" viewBox="0 0 1038 268"><defs><style>.cls-1{fill:#0083fa;}</style></defs><path class="cls-1" d="M303.99,61.5l-106.2,61.02-11.48-19.89-11.25-19.37-12.06,6.96-99.93,57.36,30.91,53.36,58.41-33.58,22.74,39.15h.12l159.67-91.81-30.91-53.19ZM295.7,108.71l-106.08,60.9c-.87.52-1.91.81-3.02.81h-.12c-2.09,0-4.12-1.1-5.16-2.96l-19.78-34.1-53.19,30.62c-2.78,1.68-6.5.81-8.18-1.97-1.68-2.78-.81-6.44,1.97-8.18.12,0,.12-.12.17-.12l58.41-33.58c2.9-1.68,6.5-.7,8.18,2.2l19.78,34.1,100.98-58.06c2.78-1.68,6.5-.81,8.18,1.97s.81,6.44-1.97,8.18c-.12.12-.17.17-.17.17Z"/><path class="cls-1" d="M943.15,86.96l-67.63,92.22h56.9c5.97,0,10.79,4.81,10.79,10.79s-4.81,10.79-10.79,10.79h-87v-19.6l67.28-92.22h-56.49c-5.97,0-10.79-4.81-10.79-10.79s4.81-10.79,10.79-10.79h87v19.6h-.06Z"/><path class="cls-1" d="M798.04,67.3h25.75v133.4h-25.75V67.3Z"/><path class="cls-1" d="M753.32,67.3h27.43l-43.62,118.84c-3.19,8.76-11.54,14.56-20.88,14.56s-17.69-5.86-20.88-14.62l-43.44-118.78h27.43l37,107.07,36.95-107.07Z"/><path class="cls-1" d="M532.28,67.3h25.75v55.1h7.83l46.86-55.1h31.44l-55.27,65.54,56.78,67.86h-32.94l-46.86-56.78h-7.83v56.78h-25.75V67.3Z"/><path class="cls-1" d="M444.99,202.03c-9.4,0-18.21-1.62-26.51-4.93-8.24-3.31-15.49-7.95-21.75-13.92-6.09-6.09-10.9-13.28-14.5-21.52-3.54-8.41-5.34-17.57-5.34-27.61s1.8-19.2,5.34-27.43c3.54-8.24,8.41-15.43,14.5-21.52,6.21-6.09,13.46-10.79,21.75-14.09,8.24-3.31,17.11-4.93,26.51-4.93s18.39,1.62,26.51,4.93c8.24,3.31,15.49,8,21.75,14.09,6.21,6.09,11.08,13.28,14.5,21.52,3.54,8.24,5.34,17.4,5.34,27.43s-1.8,19.26-5.34,27.61c-3.42,8.24-8.24,15.43-14.5,21.52-6.21,5.97-13.46,10.61-21.75,13.92-8.12,3.31-16.94,4.93-26.51,4.93ZM445.17,180.11c8,0,15.14-1.91,21.34-5.74,6.38-3.94,11.31-9.34,14.85-16.18,3.71-6.84,5.51-14.91,5.51-24.19s-1.86-17.34-5.51-24.19c-3.54-6.84-8.53-12.18-14.85-16.01-6.21-3.94-13.34-5.92-21.34-5.92s-15.54,1.97-21.92,5.92c-6.21,3.83-11.14,9.16-14.67,16.01-3.54,6.84-5.34,14.91-5.34,24.19s1.8,17.23,5.34,24.19c3.54,6.96,8.47,12.41,14.67,16.18,6.38,3.83,13.63,5.74,21.92,5.74Z"/><path class="cls-1" d="M967.22,80.47h1.68l-2.09-3.25.81-.35s.52-.23.7-.41c.46-.41.7-.99.7-1.68s-.23-1.28-.7-1.68c-.46-.41-1.1-.64-1.97-.64h-3.89v7.95h1.51v-3.31h1.39l1.91,3.31-.06.06ZM963.92,76.41v-2.84h2.15c.41,0,.7.12.99.35.29.12.52.52.52,1.04s-.23.93-.58,1.16c-.29.17-.58.23-.93.23h-2.15v.06Z"/><path class="cls-1" d="M973.66,71.82c-.81-1.39-1.91-2.49-3.31-3.31-1.39-.81-2.96-1.22-4.76-1.22s-3.42.41-4.87,1.22c-1.39.81-2.49,1.91-3.31,3.31s-1.22,2.96-1.22,4.81.41,3.42,1.22,4.81,1.91,2.49,3.31,3.31c1.45.81,3.07,1.16,4.87,1.16s3.36-.41,4.81-1.16c1.39-.81,2.49-1.91,3.31-3.31s1.22-3.02,1.22-4.81-.41-3.42-1.22-4.81h-.06ZM971.69,80.29c-.58,1.1-1.33,1.91-2.44,2.55-1.04.58-2.26.87-3.65.87s-2.67-.29-3.71-.87c-1.04-.64-1.86-1.45-2.44-2.55-.58-1.1-.81-2.32-.81-3.71s.29-2.67.81-3.71c.58-1.04,1.39-1.86,2.44-2.44,1.04-.64,2.32-.93,3.71-.93s2.61.29,3.65.93c1.04.58,1.86,1.39,2.44,2.44.58,1.04.87,2.32.87,3.71s-.29,2.61-.87,3.71Z"/></svg>