<svg id="Layer_1" data-name="Layer 1" xmlns="http://www.w3.org/2000/svg" viewBox="0 0 1100 280"><defs><style>.cls-1{fill:#00a99d;}</style></defs><path class="cls-1" d="M303.4,67,197,128.38l-11.53-20L174.22,88.88h0l-12.13,7L62,153.65l31,53.7,58.51-33.78L174.31,213l.06,0,0,0,160-92.38Zm-8.34,47.54L188.74,175.89a6.05,6.05,0,0,1-3,.8h-.08a6,6,0,0,1-5.2-3l-19.79-34.27L107.36,170.2a6.05,6.05,0,0,1-3,.8,6,6,0,0,1-3-11.19L159.87,126a6,6,0,0,1,8.19,2.19l19.81,34.31,101.19-58.42a6,6,0,0,1,6,10.39Z"/><path class="cls-1" d="M1018.41,70.82a9.61,9.61,0,0,1,4.88-8.31,10,10,0,0,1,9.79,0,9.38,9.38,0,0,1,3.59,3.51,9.29,9.29,0,0,1,1.32,4.81,9.39,9.39,0,0,1-1.26,4.73,9.82,9.82,0,0,1-8.53,4.86,9.75,9.75,0,0,1-5-1.32,9.55,9.55,0,0,1-3.55-3.53A9.41,9.41,0,0,1,1018.41,70.82Zm1.42,0a8,8,0,0,0,1.12,4.1A8.41,8.41,0,0,0,1028.2,79a8.36,8.36,0,0,0,4.18-1.09,8.26,8.26,0,0,0,3.06-3,8.05,8.05,0,0,0,0-8.21,8.23,8.23,0,0,0-3.06-3,8.48,8.48,0,0,0-8.37,0,8.11,8.11,0,0,0-3.06,3A7.94,7.94,0,0,0,1019.83,70.82Zm12.34-2.32a3,3,0,0,1-.56,1.83,3.19,3.19,0,0,1-1.52,1.14l3.1,5.07h-2.29L1028.23,72h-1.66v4.52h-2V65.11H1028a4.93,4.93,0,0,1,3.19.84A3.14,3.14,0,0,1,1032.17,68.5Zm-5.6,1.9h1.33a2.4,2.4,0,0,0,1.64-.51,1.72,1.72,0,0,0,.57-1.34,1.6,1.6,0,0,0-.53-1.35,2.81,2.81,0,0,0-1.7-.41h-1.31Z"/><path class="cls-1" d="M483.76,82.72h0a66.19,66.19,0,0,0-23-16.06,77.67,77.67,0,0,0-57.89,0,67.24,67.24,0,0,0-23,16,72.93,72.93,0,0,0-15.05,24.81,92.33,92.33,0,0,0-5.33,32.1,94.21,94.21,0,0,0,5.25,32.07,74.5,74.5,0,0,0,14.88,25.11,67.56,67.56,0,0,0,23,16.39,76.16,76.16,0,0,0,58.4,0,67.27,67.27,0,0,0,22.92-16.46,75.17,75.17,0,0,0,14.88-25.17,93.9,93.9,0,0,0,5.25-31.94,91.8,91.8,0,0,0-5.33-32A74.2,74.2,0,0,0,483.76,82.72Zm-.47,56.82a77.55,77.55,0,0,1-3.9,25.58,52.7,52.7,0,0,1-10.73,18.46,44.87,44.87,0,0,1-16.18,11.24,57.72,57.72,0,0,1-41.56,0h0a44.25,44.25,0,0,1-16.11-11.23,53.13,53.13,0,0,1-10.67-18.47,77.82,77.82,0,0,1-3.89-25.58,74.84,74.84,0,0,1,3.94-25.34A51.57,51.57,0,0,1,395,96.13a45.42,45.42,0,0,1,16.19-11,56,56,0,0,1,20.94-3.82,55,55,0,0,1,20.55,3.75,44.24,44.24,0,0,1,16,10.94,52.06,52.06,0,0,1,10.71,18.08A75.28,75.28,0,0,1,483.29,139.54Z"/><path class="cls-1" d="M660.28,61.22H630.65l-76.46,74.12V71.75a10.5,10.5,0,0,0-21,0V208.39a10.5,10.5,0,1,0,21,0V164.54L578.45,141l56.92,77.89h27.17L593.7,125.88Z"/><path class="cls-1" d="M849.63,61.34a10.52,10.52,0,0,0-10.51,10.5V208.43a10.51,10.51,0,0,0,21,0V71.84A10.51,10.51,0,0,0,849.63,61.34Z"/><path class="cls-1" d="M737,186.24,688,61.7l-.25-.63h-23l58.16,148.47a15.2,15.2,0,0,0,28.26-.41l57.47-146.7.54-1.36H786.36Z"/><path class="cls-1" d="M996.05,197.85H910.44l95.5-117.25V61.14h-103a10.51,10.51,0,0,0,0,21h74.65l-95.12,117-.22.27v19.46H996.79a10.54,10.54,0,0,0,10.5-10.55C1007.29,202.74,1002,197.85,996.05,197.85Z"/></svg>