<svg id="Layer_1" data-name="Layer 1" xmlns="http://www.w3.org/2000/svg" viewBox="0 0 175 175"><defs><style>.cls-1{fill:none;}.cls-2{fill:#444;}.cls-3{fill:#6dc065;}</style></defs><title>smart-filter-pro</title><rect class="cls-1" width="175" height="175"/><rect class="cls-2" x="136.33" y="58.59" width="9.72" height="58.33"/><path class="cls-2" d="M29.38,48.86v77.78H126.6V48.86ZM108.88,102l1.72,1.72-1.72,1.72-3.48,3.48-1.71,1.71L102,108.92,87.72,94.68,73.46,108.92l-1.72,1.71L70,108.92l-3.48-3.48-1.71-1.72L66.55,102,80.78,87.75,66.55,73.5l-1.71-1.72,1.71-1.72L70,66.59l1.71-1.72,1.72,1.72L87.72,80.82,102,66.59l1.72-1.72,1.71,1.72,3.48,3.47,1.72,1.72-1.72,1.72L94.65,87.75Z"/><path class="cls-2" d="M0,24.62V142.15H175V24.62ZM165.28,132.8H9.72V34H165.28Z"/><rect class="cls-3" x="2.43" y="101.66" width="170.14" height="68.91" rx="31.6"/><path class="cls-2" d="M141,104.09a29.16,29.16,0,0,1,29.17,29.16V139A29.17,29.17,0,0,1,141,168.14H34A29.17,29.17,0,0,1,4.86,139v-5.72A29.16,29.16,0,0,1,34,104.09H141m0-4.87H34a34.07,34.07,0,0,0-34,34V139a34.06,34.06,0,0,0,34,34H141a34.06,34.06,0,0,0,34-34v-5.72a34.07,34.07,0,0,0-34-34Z"/><path class="cls-2" d="M62.24,129q0,6.13-3.83,9.38t-10.9,3.24H44.05v13.51H36v-38H48.13q6.91,0,10.51,3T62.24,129Zm-18.19,6H46.7c2.48,0,4.33-.48,5.56-1.46a5.14,5.14,0,0,0,1.85-4.27,5.28,5.28,0,0,0-1.55-4.19,7.25,7.25,0,0,0-4.84-1.35H44.05Z"/><path class="cls-2" d="M77.46,140.57v14.57H69.4v-38H80.47q7.75,0,11.46,2.82t3.72,8.56a10.06,10.06,0,0,1-1.85,6,12.16,12.16,0,0,1-5.22,4.09q8.58,12.81,11.17,16.55H90.81l-9.06-14.57Zm0-6.55h2.6c2.55,0,4.42-.42,5.64-1.27a4.55,4.55,0,0,0,1.82-4,4.19,4.19,0,0,0-1.86-3.85,11.29,11.29,0,0,0-5.76-1.14H77.46Z"/><path class="cls-2" d="M139,136.1q0,9.43-4.68,14.5t-13.41,5.06q-8.73,0-13.41-5.06t-4.67-14.55q0-9.48,4.69-14.48t13.45-5q8.74,0,13.38,5T139,136.1Zm-27.73,0c0,4.25.81,7.44,2.41,9.59s4,3.22,7.23,3.22q9.64,0,9.64-12.81T121,123.27c-3.21,0-5.62,1.07-7.26,3.23S111.28,131.86,111.28,136.1Z"/></svg>