<?xml version="1.0" encoding="UTF-8"?><svg id="Layer_1" xmlns="http://www.w3.org/2000/svg" viewBox="0 0 175 175"><path d="M14.62,88.03c0-1.46.27-2.82.81-4.06l66.95,37.7c1.52.87,3.22,1.3,5.12,1.3s3.6-.43,5.12-1.3l66.95-37.7c.54,1.25.81,2.6.81,4.06,0,1.84-.46,3.57-1.38,5.2-.92,1.62-2.17,2.9-3.74,3.82l-62.48,36.4c-.76.43-1.58.79-2.48,1.06-.89.27-1.8.41-2.72.41-1.9,0-3.66-.49-5.28-1.46l-62.48-36.4c-1.57-.92-2.83-2.19-3.78-3.82s-1.42-3.36-1.42-5.2h0Z" style="fill:#797774; stroke-width:0px;"/><path d="M14.62,113.54c0-1.46.27-2.82.81-4.06l66.95,37.62c1.52.87,3.22,1.3,5.12,1.3s3.6-.43,5.12-1.3l66.95-37.62c.54,1.25.81,2.6.81,4.06,0,1.84-.46,3.57-1.38,5.2-.92,1.62-2.17,2.9-3.74,3.82l-62.48,36.4c-.76.43-1.58.79-2.48,1.06-.89.27-1.8.41-2.72.41-1.9,0-3.66-.49-5.28-1.46l-62.48-36.4c-1.57-.92-2.83-2.19-3.78-3.82s-1.42-3.36-1.42-5.2h0Z" style="fill:#c8c6c4; stroke-width:0px;"/><path d="M158.99,56.42c-.92-1.62-2.17-2.9-3.74-3.82l-62.48-36.56c-1.62-.97-3.39-1.46-5.28-1.46s-3.66.49-5.28,1.46L19.74,52.61c-1.57.92-2.82,2.18-3.74,3.78s-1.38,3.32-1.38,5.16.47,3.57,1.42,5.2c.95,1.62,2.21,2.9,3.78,3.82l62.48,36.4c1.63.98,3.39,1.46,5.28,1.46.92,0,1.83-.14,2.72-.41.89-.27,1.72-.62,2.48-1.06l62.48-36.4c1.57-.92,2.82-2.18,3.74-3.78s1.38-3.32,1.38-5.16-.46-3.58-1.38-5.2h-.01Z" style="fill:#444; stroke-width:0px;"/></svg>